<?xml version="1.0" encoding="UTF-8"?>
<!DOCTYPE svg PUBLIC "-//W3C//DTD SVG 1.1//EN" "http://www.w3.org/Graphics/SVG/1.1/DTD/svg11.dtd">
<svg xmlns="http://www.w3.org/2000/svg" version="1.1" width="64px" height="64px" style="shape-rendering:geometricPrecision; text-rendering:geometricPrecision; image-rendering:optimizeQuality; fill-rule:evenodd; clip-rule:evenodd" xmlns:xlink="http://www.w3.org/1999/xlink">
<g><path style="opacity:0.918" fill="#484f58" d="M 23.5,2.5 C 41.3623,-0.158261 53.529,6.84174 60,23.5C 63.1496,41.3747 56.3163,53.5413 39.5,60C 21.6253,63.1496 9.45866,56.3163 3,39.5C -0.0230431,21.535 6.81029,9.20168 23.5,2.5 Z"/></g>
<g><path style="opacity:1" fill="#f9fafa" d="M 25.5,5.5 C 41.3143,3.98175 51.8143,10.6484 57,25.5C 59.0692,41.8743 52.2358,52.3743 36.5,57C 19.9885,58.8205 9.82187,51.6538 6,35.5C 4.71335,20.4004 11.2133,10.4004 25.5,5.5 Z"/></g>
<g><path style="opacity:1" fill="#1bd7c8" d="M 25.5,11.5 C 46.5613,11.3241 54.3947,21.3241 49,41.5C 40.5561,52.5313 30.3894,54.3646 18.5,47C 10.7849,38.6865 9.61822,29.5198 15,19.5C 17.94,15.9632 21.44,13.2965 25.5,11.5 Z"/></g>
<g><path style="opacity:1" fill="#f1fcfb" d="M 34.5,18.5 C 36.3442,19.2039 36.8442,20.5372 36,22.5C 33.8239,30.2125 30.9905,37.5458 27.5,44.5C 26.3861,43.277 26.2195,41.9437 27,40.5C 29.4105,33.1012 31.9105,25.7679 34.5,18.5 Z"/></g>
<g><path style="opacity:1" fill="#f2fcfc" d="M 22.5,24.5 C 23.2891,24.7828 23.9558,25.2828 24.5,26C 22.6487,27.6837 20.982,29.5171 19.5,31.5C 20.982,33.4829 22.6487,35.3163 24.5,37C 23.9747,37.6924 23.3081,38.1924 22.5,38.5C 19.8333,36.5 17.5,34.1667 15.5,31.5C 17.5482,28.785 19.8816,26.4517 22.5,24.5 Z"/></g>
<g><path style="opacity:1" fill="#f3fdfc" d="M 39.5,24.5 C 42.7642,26.0941 45.4309,28.4275 47.5,31.5C 45.5,34.1667 43.1667,36.5 40.5,38.5C 39.6919,38.1924 39.0253,37.6924 38.5,37C 40.3513,35.3163 42.018,33.4829 43.5,31.5C 42.018,29.5171 40.3513,27.6837 38.5,26C 39.056,25.6174 39.3893,25.1174 39.5,24.5 Z"/></g>
</svg>
